<svg width="60" height="60" viewBox="0 0 60 60" fill="none" xmlns="http://www.w3.org/2000/svg">
<path fill-rule="evenodd" clip-rule="evenodd" d="M0 9.375C0 4.19733 4.19733 0 9.375 0H50.625C55.8027 0 60 4.19733 60 9.375V50.625C60 55.8027 55.8027 60 50.625 60H9.375C4.19733 60 0 55.8027 0 50.625V9.375ZM15 30.3141C15 22.0572 21.6972 15.36 29.9541 15.36C38.211 15.36 44.9082 22.0572 45 30.3141C45 36.9196 40.7798 42.516 34.8165 44.5343C34.0826 44.6261 33.8073 44.1673 33.8073 43.8004V39.6719C33.8073 38.2958 33.3487 37.3783 32.7982 36.9196C36.101 36.5527 39.5872 35.36 39.5872 29.5802C39.5872 27.9288 38.9449 26.5527 38.0276 25.5435C38.0348 25.5147 38.0449 25.4785 38.0569 25.4353C38.1973 24.9287 38.6048 23.4583 37.844 21.5985C37.844 21.5985 36.5596 21.2316 33.7156 23.1582C32.523 22.8829 31.2385 22.6994 29.9541 22.6994C28.6697 22.6994 27.3854 22.7912 26.1927 23.1582C23.3486 21.2316 22.0642 21.5985 22.0642 21.5985C21.2534 23.5806 21.7696 25.1203 21.8754 25.4357L21.8808 25.4517C20.8715 26.5527 20.321 27.8371 20.321 29.4884C20.321 35.2683 23.8074 36.5527 27.1101 36.9196C26.7431 37.2866 26.2844 37.9288 26.1927 38.938C25.367 39.305 23.2569 39.9472 21.8808 37.6536C21.8808 37.6536 21.0551 36.1857 19.5871 36.094C19.5871 36.094 18.1193 36.094 19.4955 37.0114C19.4955 37.0114 20.5046 37.4701 21.1467 39.2132C21.1467 39.2132 22.0642 42.149 26.1927 41.2316V43.8004C26.1927 44.1673 25.9174 44.6261 25.1835 44.5343C19.3119 42.516 15 36.9196 15 30.3141Z" fill="#3C70B4"/>
</svg>
